<?xml version="1.0" standalone="no"?><!DOCTYPE svg PUBLIC "-//W3C//DTD SVG 1.1//EN" "http://www.w3.org/Graphics/SVG/1.1/DTD/svg11.dtd"><svg t="1499421261086" class="icon" style="" viewBox="0 0 1024 1024" version="1.1" xmlns="http://www.w3.org/2000/svg" p-id="11610" xmlns:xlink="http://www.w3.org/1999/xlink" width="30" height="30"><defs><style type="text/css"></style></defs><path d="M960.095933 927.91366c0-0.409313 0-0.818627 0-1.330269l0-254.286c0-32.847407-32.02878-32.847407-32.02878-32.847407s-32.02878 0-31.926451 32.847407l0 179.074648L630.803238 587.057859c-23.22854-23.22854-45.84311-0.61397-45.84311-0.61397s-22.61457 22.61457 0.61397 45.84311l265.030479 264.109523-177.642051 0c-32.847407 0-32.847407 32.02878-32.847407 32.02878s0 32.02878 32.847407 31.926451l254.183671 0c0.102328 0 0.204657 0 0.409313 0 0.306985 0 0.409313 0 0.409313 0s0.511642 0 1.432597-0.102328c10.232837-0.511642 17.088838-4.195463 21.591286-9.004897 4.707105-4.502448 8.390926-11.256121 8.902568-21.386629 0.102328-1.023284 0.102328-1.534926 0.102328-1.534926S960.095933 928.220646 960.095933 927.91366z" p-id="11611" fill="#707070"></path><path d="M630.803238 436.737484l264.109523-265.030479 0 177.642051c0 32.847407 32.02878 32.847407 32.02878 32.847407s32.02878 0 31.926451-32.847407l0-254.183671c0-0.102328 0-0.204657 0-0.409313 0-0.306985 0-0.409313 0-0.409313s0-0.511642-0.102328-1.432597c-0.511642-10.232837-4.195463-17.088838-9.004897-21.591286-4.502448-4.707105-11.256121-8.390926-21.386629-8.902568-1.023284-0.102328-1.534926-0.102328-1.534926-0.102328s-0.204657 0-0.511642 0c-0.409313 0-0.818627 0-1.330269 0l-254.286 0c-32.847407 0-32.847407 32.02878-32.847407 32.02878s0 32.02878 32.847407 31.926451l179.074648 0L585.574098 391.508344c-23.22854 23.22854-0.61397 45.84311-0.61397 45.84311S607.677026 459.966024 630.803238 436.737484z" p-id="11612" fill="#707070"></path><path d="M173.088438 126.784851l177.642051 0c32.847407 0 32.847407-32.02878 32.847407-32.02878s0-32.02878-32.847407-31.926451l-254.183671 0c-0.102328 0-0.204657 0-0.409313 0-0.306985 0-0.409313 0-0.409313 0s-0.511642 0-1.432597 0.102328C83.960428 63.443589 77.206755 67.127411 72.704307 71.834516c-4.707105 4.502448-8.390926 11.256121-8.902568 21.386629-0.102328 1.023284-0.102328 1.534926-0.102328 1.534926s0 0.204657 0 0.511642c0 0.409313 0 0.818627 0 1.330269l0 254.286c0 32.847407 32.02878 32.847407 32.02878 32.847407s32.02878 0 31.926451-32.847407l0-179.074648L392.992106 436.123514c23.22854 23.22854 45.84311 0.61397 45.84311 0.61397s22.61457-22.61457-0.61397-45.84311L173.088438 126.784851z" p-id="11613" fill="#707070"></path><path d="M391.968822 586.546218l-264.109523 265.030479 0-177.642051c0-32.847407-32.02878-32.847407-32.02878-32.847407s-32.02878 0-31.926451 32.847407l0 254.183671c0 0.102328 0 0.204657 0 0.409313 0 0.306985 0 0.409313 0 0.409313s0 0.511642 0.102328 1.432597c0.511642 10.232837 4.195463 17.088838 9.004897 21.591286 4.502448 4.707105 11.256121 8.390926 21.386629 8.902568 1.023284 0.102328 1.534926 0.102328 1.534926 0.102328s0.204657 0 0.511642 0c0.409313 0 0.818627 0 1.330269 0l254.286 0c32.847407 0 32.847407-32.02878 32.847407-32.02878s0-32.02878-32.847407-31.926451l-179.074648 0 264.211852-265.235135c23.22854-23.22854 0.61397-45.84311 0.61397-45.84311S415.095033 563.317678 391.968822 586.546218z" p-id="11614" fill="#707070"></path></svg>