<?xml version="1.0" standalone="no"?><!DOCTYPE svg PUBLIC "-//W3C//DTD SVG 1.1//EN" "http://www.w3.org/Graphics/SVG/1.1/DTD/svg11.dtd"><svg t="1499421562130" class="icon" style="" viewBox="0 0 1024 1024" version="1.1" xmlns="http://www.w3.org/2000/svg" p-id="3187" xmlns:xlink="http://www.w3.org/1999/xlink" width="30" height="30"><defs><style type="text/css"></style></defs><path d="M815.919 448.386c-0.376 0.376-2.032-0.671-3.7-2.34L578.628 212.456c-1.666-1.667-2.714-3.324-2.339-3.7l52.627-52.626c0.375-0.376 2.032 0.671 3.699 2.34L866.206 392.06c1.667 1.667 2.715 3.324 2.34 3.7l-52.627 52.626zM931.128 200.729L822.829 92.43c-27.264-27.264-66.554-33.938-96-18.826-6.19 3.178-11.956 7.294-17.072 12.411l-32.271 32.271a67.966 67.966 0 0 0-6.367 7.39c0.37 0.49 0.829 1.02 1.364 1.556l223.943 223.943c0.494 0.493 0.984 0.92 1.441 1.275a68.004 68.004 0 0 0 7.405-6.378l32.27-32.271c5.117-5.117 9.234-10.882 12.412-17.072 15.112-29.447 8.438-68.736-18.826-96zM396.707 866.149c-1.462 5.263 378.66-375.502 378.66-375.502 2.696-2.696 4.594-5.166 4.242-5.519l-49.42-49.42c-0.353-0.353-2.823 1.547-5.518 4.242L351.938 813.193c-0.15 0.15-8.472 4.994-8.617 5.142 0 0-143.466 41.676-147.08 41.908-3 0.193-18.25-17.07-18.25-17.07s-14.286-12.702-14.286-15.772 45.567-156.618 45.567-156.618l370.95-373.236c2.695-2.696 4.612-5.147 4.282-5.478l-46.224-46.225c-0.33-0.33-2.783 1.587-5.478 4.283L155.24 627.689c-0.346 0.346-5.272 5.336-5.832 7.279l-79.39 267.748a35.72 35.72 0 0 0-5.568 19.197c0 19.83 16.076 35.907 35.907 35.907 6.718 0 13.002-1.85 18.378-5.06 0.63 0.111 1.842-0.036 3.193-0.427 0 0 256.615-75.183 260.709-78.508" fill="#668cff" p-id="3188"></path><path d="M686.808 392.48l-61.52-61.52c-0.439-0.44-2.952 1.362-5.614 4.023L246.851 707.807c-2.145 2.144-3.708 4.175-4.013 5.118l50.449 11.294a8.326 8.326 0 0 1 5.275 7.023l6.705 43.506c1.057-0.546 2.831-1.968 4.694-3.831l372.824-372.823c2.66-2.662 4.462-5.175 4.023-5.614z" fill="#668cff" p-id="3189"></path></svg>