<?xml version="1.0" standalone="no"?><!DOCTYPE svg PUBLIC "-//W3C//DTD SVG 1.1//EN" "http://www.w3.org/Graphics/SVG/1.1/DTD/svg11.dtd"><svg t="1499421113873" class="icon" style="" viewBox="0 0 1024 1024" version="1.1" xmlns="http://www.w3.org/2000/svg" p-id="6043" xmlns:xlink="http://www.w3.org/1999/xlink" width="30" height="30"><defs><style type="text/css"></style></defs><path d="M998.09091 379.27207 655.344732 47.028083c-27.006074-26.322505-70.240761-25.640983-96.427166 1.364067L24.409946 596.402295c-26.186406 27.006074-25.504884 70.240761 1.500167 96.427166l312.466548 302.920124 153.165402 0.545422 508.049015-520.596795C1025.77646 448.694185 1025.094938 405.458475 998.09091 379.27207zM572.829414 890.729717c-15.548114 16.503882-40.643676 18.003026-56.32789 3.273557L155.342997 552.486086c-15.548114-14.59337-15.684214-39.962154-0.1361-56.328913 8.320503-8.865925 19.368116-13.365402 30.41573-13.365402 9.411347 0 18.548448 3.273557 25.777083 10.092869l361.158527 341.517187C588.105329 849.131297 588.241428 874.362958 572.829414 890.729717z" p-id="6044" fill="#707070"></path></svg>