<?xml version="1.0" standalone="no"?><!DOCTYPE svg PUBLIC "-//W3C//DTD SVG 1.1//EN" "http://www.w3.org/Graphics/SVG/1.1/DTD/svg11.dtd"><svg t="1499421076682" class="icon" style="" viewBox="0 0 1024 1024" version="1.1" xmlns="http://www.w3.org/2000/svg" p-id="3009" xmlns:xlink="http://www.w3.org/1999/xlink" width="30" height="30"><defs><style type="text/css"></style></defs><path d="M1008.4352 972.5952v-320.546133a29.5936 29.5936 0 0 0-29.5936-29.5936L31.402667 622.523733a29.525333 29.525333 0 0 0-29.559467 29.559467l0.034133 320.512a29.457067 29.457067 0 0 0 29.5936 29.627733h947.370667a29.627733 29.627733 0 0 0 29.5936-29.627733zM61.064533 943.104l-0.068266-261.393067H124.245333v79.803734a29.525333 29.525333 0 0 0 29.5936 29.5936 29.5936 29.5936 0 0 0 29.5936-29.5936v-79.803734h51.746134v79.803734a29.525333 29.525333 0 0 0 29.627733 29.5936 29.661867 29.661867 0 0 0 29.5936-29.5936V681.642667h51.746133v152.917333a29.525333 29.525333 0 0 0 29.5936 29.5936 29.661867 29.661867 0 0 0 29.5936-29.5936v-152.917333h51.746134v79.837866a29.525333 29.525333 0 0 0 29.5936 29.5936 29.661867 29.661867 0 0 0 29.627733-29.5936V681.642667h51.780267v79.872a29.5936 29.5936 0 1 0 59.1872 0v-79.872h51.780266l-0.034133 152.917333a29.422933 29.422933 0 0 0 29.559467 29.525333c16.384 0 29.5936-13.2096 29.559466-29.559466l0.034134-152.917334 51.8144-0.034133v79.872a29.422933 29.422933 0 0 0 29.559466 29.559467c16.384 0 29.5936-13.243733 29.5936-29.627734l0.034134-79.837866h100.010666v261.358933l-888.081066 0.170667zM429.192533 200.123733l-222.958933 223.266134 26.282667 26.282666 222.958933-223.232-26.282667-26.282666z m52.565334 52.6336l-222.958934 223.232 52.565334 52.6336 222.993066-223.232-52.599466-52.6336z m-78.848-78.916266l-26.282667-26.3168-222.993067 223.232 26.282667 26.282666 222.993067-223.232z m267.8784-57.685334L565.6576 10.888533a37.137067 37.137067 0 0 0-52.565333 0l-63.419734 63.556267 157.661867 157.866667 63.453867-63.556267a37.205333 37.205333 0 0 0 0-52.599467zM102.4 579.8912h111.5136L102.4 468.309333v111.616z m260.164267 0h260.164266V542.72h-260.164266v37.205333z" p-id="3010" fill="#668cff"></path></svg>