<?xml version="1.0" standalone="no"?><!DOCTYPE svg PUBLIC "-//W3C//DTD SVG 1.1//EN" "http://www.w3.org/Graphics/SVG/1.1/DTD/svg11.dtd"><svg t="1499421173198" class="icon" style="" viewBox="0 0 1024 1024" version="1.1" xmlns="http://www.w3.org/2000/svg" p-id="9790" xmlns:xlink="http://www.w3.org/1999/xlink" width="30" height="30"><defs><style type="text/css"></style></defs><path d="M931.414 838.293h-514.347c-7.573 0-14.613-4.053-18.453-10.667s-3.84-14.72 0-21.333l257.173-445.44c3.84-6.613 10.88-10.667 18.453-10.667s14.613 4.053 18.453 10.667l257.173 445.44c3.84 6.613 3.84 14.72 0 21.333-3.733 6.613-10.773 10.667-18.453 10.667zM454.081 795.627h440.427l-220.267-381.44-220.16 381.44z" p-id="9791" fill="#668cff"></path><path d="M864.321 159.787c-50.773-50.773-118.293-78.72-190.080-78.72s-139.307 27.947-190.080 78.72c-50.773 50.773-78.72 118.293-78.72 190.080 0 13.227 0.96 26.347 2.773 39.147h-220.48c-70.72 0-128.213 57.493-128.213 128.213v311.040c0 70.72 57.493 128.213 128.213 128.213h311.040c70.72 0 128.213-57.493 128.213-128.213v-213.76c15.467 2.773 31.253 4.16 47.253 4.16 71.787 0 139.307-27.947 190.080-78.72 50.773-50.773 78.72-118.293 78.72-190.080 0-71.787-27.947-139.307-78.72-190.080zM584.321 828.267c0 47.147-38.4 85.547-85.547 85.547h-311.040c-47.147 0-85.547-38.4-85.547-85.547v-311.040c0-47.147 38.4-85.547 85.547-85.547h230.4c12.907 40.427 35.307 77.44 66.133 108.267 28.8 28.8 62.933 50.24 100.16 63.36v224.96zM584.321 557.333c-55.147-24-98.987-69.333-120.853-125.653h35.307c47.147 0 85.547 38.4 85.547 85.547v40.107zM674.241 576c-16.213 0-32-1.707-47.253-5.013v-53.76c0-70.72-57.493-128.213-128.213-128.213h-47.253c-2.24-12.693-3.413-25.813-3.413-39.147 0-124.693 101.44-226.133 226.133-226.133s226.133 101.44 226.133 226.133-101.44 226.133-226.133 226.133z" p-id="9792" fill="#668cff"></path></svg>