<?xml version="1.0" standalone="no"?><!DOCTYPE svg PUBLIC "-//W3C//DTD SVG 1.1//EN" "http://www.w3.org/Graphics/SVG/1.1/DTD/svg11.dtd"><svg t="1499421013892" class="icon" style="" viewBox="0 0 1024 1024" version="1.1" xmlns="http://www.w3.org/2000/svg" p-id="2388" xmlns:xlink="http://www.w3.org/1999/xlink" width="30" height="30"><defs><style type="text/css"></style></defs><path d="M744.368 293.186c0-21.17-17.312-38.482-38.48-38.482h-531.11c-25.342 0-46.094 20.74-46.094 46.099v446.53c0 25.355 20.752 46.092 46.095 46.092h523.487c25.337 0 46.102-20.737 46.102-46.093V638.678c0-6.785 8.213-10.197 13.023-5.413l116.573 116.598c8.985 8.967 24.325 2.631 24.325-10.068V308.369c0-12.703-15.34-19.066-24.325-10.075L757.39 414.861c-4.81 4.81-13.023 1.403-13.023-5.382V293.186zM359.562 658.743v-255.48c0-6.015 6.643-9.642 11.73-6.414L561.084 517.65c4.735 2.98 4.735 9.85 0 12.854l-201.523 128.24z" fill="#EE5F5A" p-id="2389"></path></svg>